<svg width="34" height="34" viewBox="0 0 34 34" fill="none" xmlns="http://www.w3.org/2000/svg">
<path d="M7.0907 5.71704H26.9286C28.0823 5.71704 29.1889 6.17576 30.0048 6.99146C30.8206 7.80727 31.2791 8.9139 31.2792 10.0676V23.6409C31.2792 24.7947 30.8206 25.9012 30.0048 26.717C29.1889 27.5329 28.0824 27.9915 26.9286 27.9915H7.0907C5.93697 27.9914 4.83034 27.5329 4.01453 26.717C3.19884 25.9012 2.74011 24.7945 2.74011 23.6409V10.0676C2.74017 8.9139 3.19872 7.80727 4.01453 6.99146C4.83034 6.17564 5.93697 5.7171 7.0907 5.71704ZM4.13269 23.6409C4.13269 24.4253 4.44429 25.1779 4.9989 25.7327C5.55364 26.2874 6.30619 26.5998 7.0907 26.5999H26.9286C27.7132 26.5999 28.4656 26.2875 29.0204 25.7327C29.5752 25.1779 29.8876 24.4255 29.8876 23.6409V13.3743H4.13269V23.6409ZM22.2303 20.3352H25.3632C25.5476 20.3353 25.7249 20.4079 25.8553 20.5383C25.9858 20.6688 26.0584 20.8461 26.0585 21.0305C26.0585 21.2149 25.9856 21.3922 25.8553 21.5227C25.7249 21.6531 25.5476 21.7267 25.3632 21.7268H22.2303C22.0458 21.7268 21.8687 21.6532 21.7382 21.5227C21.6078 21.3922 21.5341 21.215 21.5341 21.0305C21.5342 20.8461 21.6077 20.6688 21.7382 20.5383C21.8687 20.4079 22.0458 20.3352 22.2303 20.3352ZM7.0907 7.10962C6.30619 7.10968 5.55364 7.4211 4.9989 7.97583C4.44417 8.53056 4.13275 9.28312 4.13269 10.0676V11.9817H29.8876V10.0676C29.8875 9.28312 29.5751 8.53056 29.0204 7.97583C28.4656 7.42121 27.713 7.10962 26.9286 7.10962H7.0907Z" fill="#4CAF4F" stroke="#4CAF4F" stroke-width="0.696069"/>
</svg>
