<svg width="23" height="23" viewBox="0 0 23 23" fill="none" xmlns="http://www.w3.org/2000/svg">
<path opacity="0.1" fill-rule="evenodd" clip-rule="evenodd" d="M0.262817 11.7743C0.262817 5.62346 5.24907 0.637207 11.3999 0.637207C17.5508 0.637207 22.537 5.62346 22.537 11.7743C22.537 17.9252 17.5508 22.9114 11.3999 22.9114C5.24907 22.9114 0.262817 17.9252 0.262817 11.7743Z" fill="white"/>
<path fill-rule="evenodd" clip-rule="evenodd" d="M17.3397 11.7661C17.3397 12.1678 17.2988 12.5689 17.2184 12.9599C17.1401 13.3417 17.0241 13.7164 16.8721 14.0747C16.7236 14.4266 16.5395 14.7658 16.3242 15.082C16.1122 15.3963 15.868 15.6911 15.5997 15.9599C15.3308 16.2275 15.035 16.471 14.7209 16.6839C14.4036 16.8977 14.064 17.0816 13.7118 17.2308C13.3531 17.3819 12.9774 17.4978 12.596 17.576C12.2045 17.6565 11.8019 17.6976 11.3996 17.6976C10.997 17.6976 10.5945 17.6565 10.2035 17.576C9.82149 17.4978 9.44588 17.3819 9.08738 17.2308C8.73528 17.0816 8.39533 16.8977 8.07803 16.6839C7.76391 16.4711 7.46807 16.2275 7.19978 15.9599C6.93121 15.6911 6.68698 15.3963 6.47467 15.082C6.26061 14.7658 6.07613 14.4266 5.92706 14.0747C5.77506 13.7164 5.65877 13.3417 5.58016 12.9599C5.5007 12.5689 5.46008 12.1678 5.46008 11.7661C5.46008 11.3641 5.50068 10.9621 5.58019 10.5719C5.65879 10.1902 5.77508 9.81486 5.92708 9.45718C6.07616 9.105 6.26064 8.76557 6.47469 8.44928C6.687 8.13476 6.93123 7.84048 7.1998 7.57142C7.46809 7.30379 7.76394 7.06082 8.07805 6.84823C8.39536 6.63361 8.7353 6.44972 9.08741 6.30026C9.44591 6.14875 9.82149 6.03263 10.2035 5.95502C10.5945 5.87509 10.9971 5.83453 11.3996 5.83453C11.8019 5.83453 12.2045 5.87509 12.596 5.95502C12.9774 6.03265 13.3531 6.14878 13.7119 6.30026C14.064 6.4497 14.4036 6.63361 14.7209 6.84823C15.035 7.06082 15.3309 7.30379 15.5997 7.57142C15.868 7.84048 16.1123 8.13476 16.3243 8.44928C16.5395 8.76557 16.7236 9.10503 16.8721 9.45718C17.0241 9.81486 17.1401 10.1902 17.2184 10.5719C17.2988 10.9621 17.3397 11.3641 17.3397 11.7661ZM9.23527 7.18448C7.82072 7.8515 6.76496 9.15307 6.43575 10.7217C6.56948 10.7229 8.68332 10.7495 11.1188 10.1033C10.2409 8.54571 9.30286 7.27458 9.23527 7.18448ZM11.5391 10.8833C8.92725 11.6641 6.42096 11.6079 6.33106 11.6045C6.3296 11.6589 6.32699 11.7116 6.32699 11.7661C6.32699 13.0674 6.81861 14.2537 7.62668 15.1507C7.62493 15.148 9.01311 12.6888 11.7505 11.8049C11.8166 11.7829 11.884 11.7632 11.9507 11.7441C11.8233 11.4562 11.6844 11.1677 11.5391 10.8833ZM14.7496 7.96445C13.8565 7.1781 12.6839 6.70111 11.3996 6.70111C10.9874 6.70111 10.5875 6.75093 10.2043 6.84303C10.2803 6.94499 11.2331 8.20717 12.1006 9.79777C14.0146 9.08125 14.7371 7.98298 14.7496 7.96445ZM12.2964 12.5834C12.2851 12.5871 12.2738 12.5904 12.2628 12.5944C9.26987 13.6363 8.2925 15.7359 8.28192 15.7589C9.14308 16.4276 10.2232 16.8311 11.3996 16.8311C12.1021 16.8311 12.7712 16.6882 13.38 16.4296C13.3049 15.9871 13.0102 14.4359 12.2964 12.5834ZM14.2342 15.9668C15.3732 15.1993 16.1821 13.9806 16.4078 12.5689C16.3033 12.5353 14.8842 12.0867 13.2469 12.3488C13.9122 14.1746 14.1826 15.6616 14.2342 15.9668ZM12.4911 10.5525C12.6088 10.7941 12.7228 11.04 12.8281 11.287C12.8655 11.3757 12.9021 11.4626 12.9377 11.5494C14.6803 11.3305 16.3971 11.6989 16.4705 11.7139C16.4589 10.5132 16.0287 9.41112 15.317 8.54834C15.3074 8.56192 14.4938 9.73578 12.4911 10.5525Z" fill="white"/>
</svg>
